<svg xmlns="http://www.w3.org/2000/svg" xmlns:xlink="http://www.w3.org/1999/xlink" width="1920" zoomAndPan="magnify" viewBox="0 0 1440 809.999993" height="1080" preserveAspectRatio="xMidYMid meet" version="1.0"><defs><clipPath id="298ba6ce56"><path d="M 1062 5.855469 L 1074.648438 5.855469 L 1074.648438 803.855469 L 1062 803.855469 Z M 1062 5.855469 " clip-rule="nonzero"/></clipPath><clipPath id="ea4d76fbe2"><path d="M 697 5.855469 L 1053 5.855469 L 1053 803.855469 L 697 803.855469 Z M 697 5.855469 " clip-rule="nonzero"/></clipPath></defs><path fill="#000000" d="M 982.785156 604.902344 L 988.082031 604.902344 L 988.082031 701.695312 L 982.785156 701.695312 Z M 982.785156 604.902344 " fill-opacity="1" fill-rule="nonzero"/><path fill="#000000" d="M 982.785156 490.429688 L 988.082031 490.429688 L 988.082031 587.222656 L 982.785156 587.222656 Z M 982.785156 490.429688 " fill-opacity="1" fill-rule="nonzero"/><path fill="#000000" d="M 982.785156 405.011719 L 988.082031 405.011719 L 988.082031 469.214844 L 982.785156 469.214844 Z M 982.785156 405.011719 " fill-opacity="1" fill-rule="nonzero"/><path fill="#000000" d="M 958.710938 182.988281 L 991.203125 240.753906 L 993.414062 235.183594 L 960.601562 177.570312 Z M 958.710938 182.988281 " fill-opacity="1" fill-rule="nonzero"/><path fill="#000000" d="M 1003.527344 209.714844 L 969.230469 152.824219 L 967.261719 158.480469 L 1001.214844 215.546875 Z M 1003.527344 209.714844 " fill-opacity="1" fill-rule="nonzero"/><path fill="#000000" d="M 947.09375 143.472656 L 1016.355469 263.203125 L 1018.824219 257.433594 L 948.871094 138.035156 Z M 947.09375 143.472656 " fill-opacity="1" fill-rule="nonzero"/><g clip-path="url(#298ba6ce56)"><path fill="#000000" d="M 1074.003906 5.855469 L 1062.523438 15.0625 L 1062.523438 794.648438 L 1074.003906 803.855469 Z M 1074.003906 5.855469 " fill-opacity="1" fill-rule="nonzero"/></g><path fill="#000000" d="M 1003.390625 627.890625 L 1003.390625 458.507812 L 998.515625 458.507812 L 998.515625 627.890625 Z M 1003.390625 627.890625 " fill-opacity="1" fill-rule="nonzero"/><path fill="#000000" d="M 609.722656 167.433594 L 640.304688 185.917969 L 644.289062 179.335938 L 623.957031 167.046875 L 651.679688 164.886719 C 653.019531 164.78125 654.210938 163.984375 654.816406 162.785156 C 655.425781 161.585938 655.359375 160.160156 654.648438 159.019531 L 643.507812 141.160156 L 667.433594 148.398438 C 668.675781 148.773438 670.039062 148.496094 671.03125 147.652344 C 672.03125 146.8125 672.53125 145.523438 672.367188 144.230469 L 668.183594 111.316406 L 690.246094 134.585938 C 691.109375 135.5 692.355469 135.941406 693.617188 135.746094 C 694.863281 135.554688 695.9375 134.769531 696.492188 133.640625 L 709.410156 107.414062 L 717.03125 138.554688 C 717.34375 139.824219 718.277344 140.851562 719.515625 141.277344 C 720.757812 141.703125 722.125 141.472656 723.152344 140.664062 L 744.695312 123.714844 L 736.054688 158.195312 C 735.765625 159.34375 736.023438 160.5625 736.753906 161.496094 C 737.484375 162.429688 738.605469 162.976562 739.789062 162.976562 C 739.789062 162.976562 739.789062 162.976562 739.792969 162.976562 L 760.082031 162.964844 L 745.847656 176.875 L 751.230469 182.375 L 772.214844 161.867188 C 773.332031 160.773438 773.679688 159.109375 773.089844 157.664062 C 772.496094 156.214844 771.089844 155.269531 769.523438 155.269531 L 744.71875 155.28125 L 754.898438 114.664062 C 755.300781 113.066406 754.636719 111.394531 753.257812 110.5 C 751.875 109.605469 750.082031 109.691406 748.785156 110.707031 L 723.085938 130.921875 L 714.371094 95.308594 C 713.988281 93.734375 712.660156 92.574219 711.050781 92.398438 C 709.449219 92.222656 707.894531 93.066406 707.179688 94.523438 L 692.03125 125.28125 L 665.675781 97.484375 C 664.527344 96.273438 662.738281 95.945312 661.234375 96.652344 C 659.730469 97.367188 658.855469 98.964844 659.0625 100.613281 L 663.984375 139.316406 L 635.945312 130.832031 C 634.410156 130.367188 632.746094 130.90625 631.773438 132.175781 C 630.800781 133.445312 630.714844 135.1875 631.5625 136.546875 L 644.761719 157.710938 L 611.414062 160.308594 C 609.746094 160.4375 608.355469 161.628906 607.96875 163.253906 C 607.582031 164.878906 608.289062 166.570312 609.722656 167.433594 Z M 609.722656 167.433594 " fill-opacity="1" fill-rule="nonzero"/><path fill="#000000" d="M 672.816406 195.511719 C 670.203125 187.207031 674.265625 178.078125 682.441406 174.574219 C 682.519531 174.539062 682.597656 174.519531 682.679688 174.484375 C 685.164062 171.179688 688.378906 168.53125 692.039062 166.714844 C 688.007812 166.226562 683.800781 166.734375 679.8125 168.445312 C 667.71875 173.628906 662.101562 187.679688 667.292969 199.765625 L 669.140625 204.074219 Z M 672.816406 195.511719 " fill-opacity="1" fill-rule="nonzero"/><g clip-path="url(#ea4d76fbe2)"><path fill="#000000" d="M 720.234375 219.03125 L 749.179688 286.453125 L 829.824219 308.539062 C 837.617188 313.253906 846.433594 316.191406 855.773438 317.0625 C 857.703125 317.238281 859.625 317.328125 861.539062 317.328125 C 875.734375 317.328125 889.363281 312.433594 900.425781 303.261719 C 910.75 294.703125 917.8125 283.253906 920.839844 270.433594 C 921.285156 270.351562 921.734375 270.273438 922.191406 270.230469 L 922.945312 270.152344 L 923.589844 269.757812 C 924.566406 269.167969 925.597656 268.671875 926.65625 268.285156 C 939.019531 263.800781 952.535156 268.410156 967.917969 282.359375 L 967.941406 282.332031 C 973.003906 287.351562 978.167969 293.210938 984.1875 300.765625 C 998.496094 318.726562 1010.203125 337.726562 1010.699219 338.53125 C 1016.589844 348.15625 1014.0625 360.910156 1004.945312 367.566406 L 926.878906 424.570312 C 925.765625 425.382812 924.5625 426.097656 923.3125 426.691406 L 923.191406 426.746094 C 913.761719 431.136719 902.484375 428.230469 896.335938 419.816406 C 889.222656 410.089844 891.355469 396.398438 901.085938 389.292969 L 962.382812 344.539062 L 960.464844 341.855469 C 951.039062 328.664062 944.398438 319.558594 938.226562 313.410156 L 933.515625 318.128906 C 938.910156 323.503906 944.890625 331.570312 953.117188 343.046875 L 897.152344 383.910156 C 884.453125 393.183594 881.667969 411.054688 890.949219 423.753906 C 896.464844 431.296875 905.140625 435.445312 914.023438 435.445312 C 918.121094 435.441406 922.261719 434.5625 926.152344 432.722656 L 926.347656 432.628906 C 927.917969 431.875 929.421875 430.972656 930.816406 429.953125 L 970.9375 400.65625 L 1008.882812 372.953125 C 1020.78125 364.261719 1024.078125 347.617188 1016.382812 335.039062 C 1015.878906 334.226562 1003.96875 314.886719 989.40625 296.613281 C 983.4375 289.117188 978.265625 283.238281 973.191406 278.152344 L 973.203125 278.140625 C 973.132812 278.078125 973.066406 278.023438 972.996094 277.960938 C 972.867188 277.828125 972.734375 277.691406 972.601562 277.558594 L 972.574219 277.585938 C 955.121094 261.6875 939.347656 256.589844 924.375 262.019531 C 923.605469 262.300781 922.855469 262.636719 922.113281 262.996094 C 922.152344 262.648438 922.203125 262.300781 922.238281 261.949219 C 923.75 245.71875 918.847656 229.871094 908.429688 217.324219 C 902.386719 210.046875 894.90625 204.398438 886.519531 200.632812 L 886.519531 157.859375 L 1037.023438 45.917969 L 1037.023438 763.8125 L 886.519531 651.863281 L 886.519531 474.214844 L 896.851562 493.257812 L 967.863281 663.121094 L 970.9375 661.835938 L 974.015625 660.550781 L 970.9375 653.1875 L 902.941406 490.53125 L 823.117188 343.390625 L 822.441406 342.140625 L 732.101562 317.402344 C 727.023438 316.011719 722.921875 312.441406 720.847656 307.609375 L 701.527344 262.605469 L 697.898438 271.058594 L 714.71875 310.234375 C 717.597656 316.949219 723.292969 321.902344 730.339844 323.832031 L 817.929688 347.820312 L 879.773438 461.785156 L 879.773438 665.734375 L 881.132812 666.824219 L 1052.019531 803.855469 L 1052.019531 5.855469 L 881.132812 142.886719 L 879.773438 143.976562 L 879.773438 198.074219 C 875.691406 196.800781 871.449219 195.933594 867.09375 195.527344 C 850.855469 194.019531 834.992188 198.914062 822.4375 209.324219 C 809.886719 219.734375 802.140625 234.40625 800.628906 250.636719 C 799.113281 266.867188 804.015625 282.71875 814.429688 295.261719 C 815.242188 296.242188 816.089844 297.179688 816.953125 298.097656 L 754.042969 280.871094 L 723.863281 210.578125 Z M 819.566406 291.003906 C 810.285156 279.832031 805.921875 265.714844 807.265625 251.253906 C 808.617188 236.796875 815.515625 223.726562 826.695312 214.457031 C 836.550781 206.285156 848.6875 201.925781 861.335938 201.925781 C 863.039062 201.925781 864.753906 202.003906 866.472656 202.164062 C 880.941406 203.511719 894.015625 210.40625 903.292969 221.582031 C 912.574219 232.757812 916.941406 246.875 915.59375 261.332031 C 914.246094 275.792969 907.347656 288.859375 896.164062 298.132812 C 884.980469 307.40625 870.84375 311.769531 856.386719 310.421875 C 841.917969 309.078125 828.84375 302.179688 819.566406 291.003906 Z M 819.566406 291.003906 " fill-opacity="1" fill-rule="nonzero"/></g><path fill="#000000" d="M 889.570312 273.429688 C 860.789062 285.460938 820.542969 270.464844 820.542969 270.464844 C 853.316406 324.371094 889.570312 273.429688 889.570312 273.429688 Z M 889.570312 273.429688 " fill-opacity="1" fill-rule="nonzero"/><path fill="#000000" d="M 516.105469 186.722656 C 517.871094 187.398438 519.601562 188.15625 521.292969 188.996094 C 522.988281 189.839844 524.632812 190.765625 526.234375 191.769531 C 527.835938 192.773438 529.386719 193.851562 530.878906 195.007812 C 532.375 196.167969 533.8125 197.394531 535.183594 198.691406 C 536.558594 199.988281 537.867188 201.351562 539.109375 202.777344 C 540.351562 204.203125 541.515625 205.683594 542.613281 207.226562 C 543.707031 208.765625 544.722656 210.355469 545.664062 211.996094 C 546.601562 213.636719 547.457031 215.320312 548.230469 217.042969 C 549.003906 218.769531 549.691406 220.527344 550.292969 222.316406 C 550.890625 224.109375 551.402344 225.925781 551.824219 227.769531 C 552.246094 229.609375 552.578125 231.46875 552.816406 233.34375 C 553.054688 235.21875 553.203125 237.097656 553.253906 238.988281 C 553.308594 240.878906 553.269531 242.765625 553.140625 244.648438 C 553.007812 246.535156 552.785156 248.40625 552.46875 250.269531 C 552.152344 252.132812 551.746094 253.976562 551.25 255.800781 C 550.753906 257.625 550.167969 259.417969 549.492188 261.183594 C 548.820312 262.949219 548.0625 264.679688 547.21875 266.371094 C 546.375 268.0625 545.453125 269.707031 544.445312 271.308594 C 543.441406 272.90625 542.359375 274.457031 541.203125 275.949219 C 540.046875 277.445312 538.816406 278.878906 537.519531 280.25 C 536.222656 281.625 534.859375 282.933594 533.433594 284.171875 C 532.003906 285.414062 530.519531 286.578125 528.980469 287.675781 C 527.4375 288.769531 525.847656 289.785156 524.207031 290.722656 C 522.5625 291.660156 520.878906 292.515625 519.15625 293.289062 C 517.429688 294.0625 515.671875 294.746094 513.878906 295.347656 C 512.085938 295.949219 510.265625 296.457031 508.421875 296.878906 C 506.578125 297.300781 504.71875 297.632812 502.84375 297.871094 C 500.96875 298.109375 499.085938 298.253906 497.195312 298.308594 C 495.304688 298.363281 493.417969 298.324219 491.53125 298.195312 C 489.644531 298.0625 487.769531 297.839844 485.90625 297.523438 C 484.042969 297.207031 482.195312 296.800781 480.371094 296.304688 C 478.546875 295.808594 476.753906 295.222656 474.984375 294.550781 C 473.21875 293.878906 471.488281 293.121094 469.796875 292.277344 C 468.105469 291.433594 466.457031 290.511719 464.855469 289.507812 C 463.253906 288.503906 461.707031 287.421875 460.210938 286.265625 C 458.714844 285.109375 457.28125 283.882812 455.90625 282.585938 C 454.53125 281.285156 453.222656 279.925781 451.980469 278.5 C 450.742188 277.074219 449.574219 275.589844 448.476562 274.050781 C 447.382812 272.507812 446.367188 270.917969 445.429688 269.277344 C 444.488281 267.636719 443.632812 265.957031 442.859375 264.230469 C 442.085938 262.507812 441.398438 260.75 440.800781 258.957031 C 440.199219 257.164062 439.6875 255.347656 439.265625 253.507812 C 438.84375 251.664062 438.515625 249.804688 438.273438 247.929688 C 438.035156 246.058594 437.890625 244.175781 437.835938 242.285156 C 437.78125 240.398438 437.820312 238.511719 437.953125 236.625 C 438.082031 234.742188 438.308594 232.867188 438.621094 231.003906 C 438.9375 229.140625 439.34375 227.296875 439.839844 225.472656 C 440.339844 223.652344 440.921875 221.855469 441.597656 220.089844 C 442.269531 218.324219 443.027344 216.597656 443.871094 214.90625 C 444.714844 213.214844 445.640625 211.566406 446.644531 209.96875 C 447.648438 208.367188 448.730469 206.820312 449.886719 205.324219 C 451.046875 203.832031 452.273438 202.398438 453.570312 201.023438 C 454.871094 199.648438 456.230469 198.34375 457.660156 197.101562 C 459.085938 195.863281 460.570312 194.695312 462.113281 193.601562 C 463.652344 192.507812 465.246094 191.492188 466.886719 190.550781 C 468.527344 189.613281 470.210938 188.757812 471.9375 187.984375 C 473.660156 187.214844 475.421875 186.527344 477.214844 185.925781 C 479.007812 185.328125 480.824219 184.816406 482.667969 184.394531 C 484.511719 183.972656 486.371094 183.644531 488.246094 183.40625 C 490.121094 183.164062 492.003906 183.019531 493.894531 182.964844 C 495.785156 182.910156 497.671875 182.949219 499.558594 183.082031 C 501.445312 183.210938 503.320312 183.4375 505.183594 183.75 C 507.050781 184.066406 508.894531 184.472656 510.71875 184.96875 C 512.542969 185.464844 514.339844 186.050781 516.105469 186.722656 Z M 516.105469 186.722656 " fill-opacity="1" fill-rule="nonzero"/><path fill="#000000" d="M 418.78125 449.597656 L 439.574219 451.496094 L 434.261719 394.484375 L 440.15625 394.144531 L 448.898438 487.980469 L 427.488281 750.304688 C 426.066406 767.761719 439.070312 783.058594 456.53125 784.480469 C 473.992188 785.902344 489.304688 772.914062 490.730469 755.460938 L 509.300781 527.910156 L 530.328125 525.953125 L 569.453125 756.570312 C 572.378906 773.835938 588.757812 785.449219 606.03125 782.527344 C 623.304688 779.601562 634.9375 763.238281 632.007812 745.96875 L 588.355469 488.648438 L 578.8125 386.195312 L 574.917969 344.40625 L 642.210938 325.976562 L 661.78125 320.617188 C 667.8125 318.96875 672.757812 314.660156 675.21875 308.921875 L 722.648438 198.453125 C 727.117188 188.039062 722.296875 175.980469 711.878906 171.511719 C 701.460938 167.046875 689.390625 171.863281 684.921875 182.277344 L 641.390625 283.660156 L 622.164062 288.925781 L 552.542969 307.992188 C 552.234375 308.007812 551.925781 308.003906 551.613281 308.03125 L 452.90625 317.214844 C 452.746094 317.230469 452.589844 317.265625 452.425781 317.285156 C 452.160156 317.300781 451.894531 317.292969 451.625 317.320312 C 425.742188 319.726562 414.929688 351.851562 408.40625 379.570312 C 402.859375 403.117188 400.347656 426 400.242188 426.960938 C 399.648438 432.429688 401.28125 437.90625 404.765625 442.164062 C 408.253906 446.417969 413.300781 449.097656 418.78125 449.597656 Z M 418.78125 449.597656 " fill-opacity="1" fill-rule="nonzero"/></svg>