<svg xmlns="http://www.w3.org/2000/svg" xmlns:xlink="http://www.w3.org/1999/xlink" width="1920" zoomAndPan="magnify" viewBox="0 0 1440 809.999993" height="1080" preserveAspectRatio="xMidYMid meet" version="1.0"><defs><clipPath id="faad2c9df3"><path d="M 306.777344 307 L 503 307 L 503 503 L 306.777344 503 Z M 306.777344 307 " clip-rule="nonzero"/></clipPath><clipPath id="a4e08f740d"><path d="M 921 307 L 1116.777344 307 L 1116.777344 503 L 921 503 Z M 921 307 " clip-rule="nonzero"/></clipPath></defs><path fill="#000000" d="M 447.390625 394.871094 C 423.667969 394.871094 415.722656 378.175781 415.351562 377.359375 L 432.019531 369.742188 L 431.917969 369.527344 C 432.445312 370.527344 437.582031 379.195312 455.351562 375.703125 C 460.316406 374.730469 465.132812 377.964844 466.109375 382.929688 C 467.082031 387.894531 463.847656 392.710938 458.882812 393.6875 C 454.695312 394.511719 450.871094 394.871094 447.390625 394.871094 Z M 447.390625 394.871094 " fill-opacity="1" fill-rule="nonzero"/><path fill="#000000" d="M 361.414062 394.871094 C 357.929688 394.871094 354.109375 394.511719 349.921875 393.6875 C 344.957031 392.710938 341.71875 387.898438 342.699219 382.929688 C 343.671875 377.964844 348.476562 374.726562 353.453125 375.703125 C 371.84375 379.316406 376.738281 369.839844 376.785156 369.742188 C 378.886719 365.136719 384.324219 363.113281 388.925781 365.21875 C 393.53125 367.320312 395.554688 372.757812 393.449219 377.359375 C 393.078125 378.175781 385.128906 394.871094 361.414062 394.871094 Z M 361.414062 394.871094 " fill-opacity="1" fill-rule="nonzero"/><path fill="#000000" d="M 379.355469 445.757812 C 376.1875 445.757812 373.109375 444.117188 371.410156 441.175781 C 368.882812 436.792969 370.382812 431.1875 374.765625 428.660156 C 393.597656 417.785156 415.203125 417.785156 434.035156 428.660156 C 438.417969 431.191406 439.917969 436.792969 437.386719 441.175781 C 434.859375 445.558594 429.257812 447.0625 424.871094 444.527344 C 411.671875 436.90625 397.128906 436.90625 383.929688 444.527344 C 382.488281 445.363281 380.910156 445.757812 379.355469 445.757812 Z M 379.355469 445.757812 " fill-opacity="1" fill-rule="nonzero"/><path fill="#000000" d="M 777.574219 579.332031 L 677.886719 579.332031 C 662.0625 579.332031 649.183594 566.457031 649.183594 550.628906 L 649.183594 528.332031 L 620.589844 528.332031 C 607.503906 528.332031 596.855469 517.679688 596.855469 504.59375 L 596.855469 454.144531 L 580.78125 454.144531 C 572.039062 454.144531 562.679688 448.988281 558.53125 441.886719 C 555.519531 436.730469 555.410156 430.90625 558.230469 425.90625 L 585.398438 377.769531 C 585.3125 375.726562 585.265625 373.722656 585.265625 371.789062 C 585.265625 294.054688 648.503906 230.8125 726.238281 230.8125 C 803.972656 230.8125 867.214844 294.054688 867.214844 371.789062 C 867.214844 418.449219 844.53125 461.460938 806.277344 487.84375 L 806.277344 550.628906 C 806.277344 566.457031 793.402344 579.332031 777.574219 579.332031 Z M 575.035156 433.417969 C 576.257812 434.503906 578.726562 435.820312 580.785156 435.820312 L 606.019531 435.820312 C 611.082031 435.820312 615.183594 439.917969 615.183594 444.980469 L 615.183594 504.59375 C 615.183594 507.527344 617.660156 510.003906 620.59375 510.003906 L 658.347656 510.003906 C 663.40625 510.003906 667.511719 514.105469 667.511719 519.167969 L 667.511719 550.628906 C 667.511719 556.351562 672.164062 561.007812 677.890625 561.007812 L 777.578125 561.007812 C 783.300781 561.007812 787.953125 556.351562 787.953125 550.628906 L 787.953125 482.933594 C 787.953125 479.804688 789.546875 476.894531 792.183594 475.210938 C 827.695312 452.523438 848.894531 413.859375 848.894531 371.789062 C 848.894531 304.160156 793.875 249.140625 726.242188 249.140625 C 658.613281 249.140625 603.59375 304.160156 603.59375 371.789062 C 603.59375 374.210938 603.675781 376.769531 603.835938 379.390625 C 603.945312 381.15625 603.539062 382.914062 602.671875 384.457031 Z M 575.035156 433.417969 " fill-opacity="1" fill-rule="nonzero"/><path fill="#000000" d="M 726.242188 472.027344 C 670.96875 472.027344 626.003906 427.0625 626.003906 371.789062 C 626.003906 316.515625 670.96875 271.550781 726.242188 271.550781 C 781.515625 271.550781 826.480469 316.519531 826.480469 371.789062 C 826.480469 427.0625 781.515625 472.027344 726.242188 472.027344 Z M 726.242188 289.875 C 681.074219 289.875 644.328125 326.621094 644.328125 371.789062 C 644.328125 416.953125 681.074219 453.699219 726.242188 453.699219 C 771.410156 453.699219 808.152344 416.953125 808.152344 371.789062 C 808.152344 326.621094 771.410156 289.875 726.242188 289.875 Z M 726.242188 289.875 " fill-opacity="1" fill-rule="nonzero"/><path fill="#000000" d="M 711.707031 249.9375 C 706.644531 249.9375 702.542969 245.835938 702.542969 240.773438 L 702.542969 186.300781 C 702.542969 181.242188 706.644531 177.136719 711.707031 177.136719 C 716.765625 177.136719 720.867188 181.242188 720.867188 186.300781 L 720.867188 240.773438 C 720.867188 245.835938 716.765625 249.9375 711.707031 249.9375 Z M 711.707031 249.9375 " fill-opacity="1" fill-rule="nonzero"/><path fill="#000000" d="M 828.226562 297.714844 C 825.882812 297.714844 823.535156 296.820312 821.75 295.03125 C 818.167969 291.453125 818.167969 285.652344 821.75 282.074219 L 859.921875 243.898438 C 863.496094 240.320312 869.304688 240.320312 872.878906 243.898438 C 876.457031 247.476562 876.457031 253.277344 872.878906 256.855469 L 834.703125 295.03125 C 832.914062 296.820312 830.570312 297.714844 828.226562 297.714844 Z M 828.226562 297.714844 " fill-opacity="1" fill-rule="nonzero"/><path fill="#000000" d="M 930.480469 414.234375 L 854.117188 414.234375 C 849.054688 414.234375 844.953125 410.132812 844.953125 405.074219 C 844.953125 400.011719 849.054688 395.910156 854.117188 395.910156 L 930.480469 395.910156 C 935.539062 395.910156 939.640625 400.011719 939.640625 405.074219 C 939.640625 410.132812 935.539062 414.234375 930.480469 414.234375 Z M 930.480469 414.234375 " fill-opacity="1" fill-rule="nonzero"/><path fill="#000000" d="M 866.402344 568.929688 C 864.058594 568.929688 861.710938 568.039062 859.921875 566.246094 L 790.636719 496.957031 C 787.058594 493.382812 787.058594 487.578125 790.636719 484.003906 C 794.210938 480.421875 800.015625 480.421875 803.59375 484.003906 L 872.878906 553.289062 C 876.457031 556.867188 876.457031 562.667969 872.878906 566.246094 C 871.089844 568.039062 868.746094 568.929688 866.402344 568.929688 Z M 866.402344 568.929688 " fill-opacity="1" fill-rule="nonzero"/><path fill="#000000" d="M 711.707031 633.007812 C 706.644531 633.007812 702.542969 628.90625 702.542969 623.84375 L 702.542969 570.171875 C 702.542969 565.109375 706.644531 561.007812 711.707031 561.007812 C 716.765625 561.007812 720.867188 565.109375 720.867188 570.171875 L 720.867188 623.84375 C 720.867188 628.90625 716.765625 633.007812 711.707031 633.007812 Z M 711.707031 633.007812 " fill-opacity="1" fill-rule="nonzero"/><path fill="#000000" d="M 557.011719 568.929688 C 554.664062 568.929688 552.320312 568.039062 550.53125 566.246094 C 546.949219 562.667969 546.949219 556.867188 550.53125 553.289062 L 600.308594 503.515625 C 603.886719 499.933594 609.6875 499.933594 613.265625 503.515625 C 616.84375 507.089844 616.84375 512.894531 613.265625 516.46875 L 563.488281 566.246094 C 561.699219 568.039062 559.355469 568.929688 557.011719 568.929688 Z M 557.011719 568.929688 " fill-opacity="1" fill-rule="nonzero"/><path fill="#000000" d="M 580.511719 414.234375 L 492.933594 414.234375 C 487.875 414.234375 483.769531 410.132812 483.769531 405.074219 C 483.769531 400.011719 487.875 395.910156 492.933594 395.910156 L 580.511719 395.910156 C 585.570312 395.910156 589.675781 400.011719 589.675781 405.074219 C 589.675781 410.132812 585.570312 414.234375 580.511719 414.234375 Z M 580.511719 414.234375 " fill-opacity="1" fill-rule="nonzero"/><path fill="#000000" d="M 612.847656 315.375 C 610.5 315.375 608.15625 314.480469 606.367188 312.691406 L 550.53125 256.855469 C 546.953125 253.277344 546.953125 247.476562 550.53125 243.898438 C 554.109375 240.320312 559.910156 240.320312 563.488281 243.898438 L 619.324219 299.734375 C 622.902344 303.3125 622.902344 309.117188 619.324219 312.691406 C 617.535156 314.480469 615.191406 315.375 612.847656 315.375 Z M 612.847656 315.375 " fill-opacity="1" fill-rule="nonzero"/><g clip-path="url(#faad2c9df3)"><path fill="#000000" d="M 404.402344 502.769531 C 350.53125 502.769531 306.707031 458.941406 306.707031 405.074219 C 306.707031 351.203125 350.53125 307.378906 404.402344 307.378906 C 458.273438 307.378906 502.097656 351.203125 502.097656 405.074219 C 502.097656 458.941406 458.269531 502.769531 404.402344 502.769531 Z M 404.402344 325.703125 C 360.636719 325.703125 325.03125 361.308594 325.03125 405.074219 C 325.03125 448.835938 360.636719 484.441406 404.402344 484.441406 C 448.167969 484.441406 483.769531 448.835938 483.769531 405.074219 C 483.769531 361.308594 448.164062 325.703125 404.402344 325.703125 Z M 404.402344 325.703125 " fill-opacity="1" fill-rule="nonzero"/></g><path fill="#000000" d="M 494.410156 285.425781 C 469.394531 285.425781 444.375 275.902344 425.328125 256.855469 C 387.238281 218.765625 387.238281 156.785156 425.328125 118.695312 C 443.78125 100.242188 468.316406 90.082031 494.410156 90.082031 C 520.503906 90.082031 545.039062 100.242188 563.488281 118.695312 C 601.582031 156.785156 601.582031 218.765625 563.488281 256.855469 C 544.445312 275.902344 519.425781 285.425781 494.410156 285.425781 Z M 494.410156 108.40625 C 473.210938 108.40625 453.277344 116.660156 438.285156 131.65625 C 407.339844 162.601562 407.339844 212.953125 438.285156 243.898438 C 469.234375 274.847656 519.585938 274.847656 550.53125 243.898438 C 581.480469 212.953125 581.480469 162.601562 550.53125 131.65625 C 535.539062 116.660156 515.609375 108.40625 494.410156 108.40625 Z M 494.410156 108.40625 " fill-opacity="1" fill-rule="nonzero"/><path fill="#000000" d="M 711.707031 195.464844 C 657.835938 195.464844 614.007812 151.636719 614.007812 97.769531 C 614.007812 43.898438 657.835938 0.0742188 711.707031 0.0742188 C 765.574219 0.0742188 809.398438 43.898438 809.398438 97.769531 C 809.398438 151.640625 765.574219 195.464844 711.707031 195.464844 Z M 711.707031 18.398438 C 667.941406 18.398438 632.335938 54.003906 632.335938 97.769531 C 632.335938 141.535156 667.941406 177.140625 711.707031 177.140625 C 755.472656 177.140625 791.074219 141.535156 791.074219 97.769531 C 791.074219 54.007812 755.472656 18.398438 711.707031 18.398438 Z M 711.707031 18.398438 " fill-opacity="1" fill-rule="nonzero"/><path fill="#000000" d="M 929 285.425781 C 903.984375 285.425781 878.96875 275.902344 859.921875 256.859375 C 821.832031 218.765625 821.832031 156.789062 859.921875 118.695312 C 878.375 100.242188 902.90625 90.082031 929 90.082031 C 955.097656 90.082031 979.632812 100.242188 998.082031 118.695312 C 1036.175781 156.789062 1036.175781 218.765625 998.082031 256.859375 C 979.039062 275.902344 954.019531 285.425781 929 285.425781 Z M 929 108.40625 C 907.800781 108.40625 887.871094 116.660156 872.878906 131.65625 C 841.933594 162.601562 841.933594 212.953125 872.878906 243.898438 C 903.824219 274.847656 954.179688 274.84375 985.125 243.898438 C 1016.070312 212.953125 1016.070312 162.601562 985.125 131.65625 C 970.132812 116.660156 950.203125 108.40625 929 108.40625 Z M 929 108.40625 " fill-opacity="1" fill-rule="nonzero"/><g clip-path="url(#a4e08f740d)"><path fill="#000000" d="M 1019.011719 502.769531 C 965.140625 502.769531 921.3125 458.941406 921.3125 405.074219 C 921.3125 351.203125 965.140625 307.378906 1019.011719 307.378906 C 1072.878906 307.378906 1116.707031 351.203125 1116.707031 405.074219 C 1116.707031 458.941406 1072.878906 502.769531 1019.011719 502.769531 Z M 1019.011719 325.703125 C 975.246094 325.703125 939.640625 361.308594 939.640625 405.074219 C 939.640625 448.835938 975.246094 484.441406 1019.011719 484.441406 C 1062.773438 484.441406 1098.378906 448.835938 1098.378906 405.074219 C 1098.378906 361.308594 1062.773438 325.703125 1019.011719 325.703125 Z M 1019.011719 325.703125 " fill-opacity="1" fill-rule="nonzero"/></g><path fill="#000000" d="M 929 720.066406 C 902.90625 720.066406 878.375 709.902344 859.921875 691.449219 C 821.832031 653.359375 821.832031 591.382812 859.921875 553.289062 C 898.015625 515.195312 959.996094 515.199219 998.085938 553.289062 C 1036.175781 591.378906 1036.175781 653.359375 998.085938 691.449219 C 979.632812 709.902344 955.097656 720.066406 929 720.066406 Z M 929 543.039062 C 908.675781 543.039062 888.351562 550.773438 872.878906 566.246094 C 841.933594 597.195312 841.933594 647.546875 872.878906 678.492188 C 887.871094 693.484375 907.800781 701.742188 929 701.742188 C 950.203125 701.742188 970.132812 693.484375 985.125 678.492188 C 1016.070312 647.546875 1016.070312 597.195312 985.125 566.246094 C 969.652344 550.773438 949.328125 543.039062 929 543.039062 Z M 929 543.039062 " fill-opacity="1" fill-rule="nonzero"/><path fill="#000000" d="M 711.707031 810.074219 C 657.835938 810.074219 614.007812 766.246094 614.007812 712.375 C 614.007812 658.507812 657.835938 614.679688 711.707031 614.679688 C 765.574219 614.679688 809.398438 658.507812 809.398438 712.375 C 809.398438 766.246094 765.574219 810.074219 711.707031 810.074219 Z M 711.707031 633.007812 C 667.941406 633.007812 632.335938 668.613281 632.335938 712.378906 C 632.335938 756.144531 667.941406 791.75 711.707031 791.75 C 755.472656 791.75 791.074219 756.144531 791.074219 712.378906 C 791.074219 668.613281 755.472656 633.007812 711.707031 633.007812 Z M 711.707031 633.007812 " fill-opacity="1" fill-rule="nonzero"/><path fill="#000000" d="M 494.410156 720.066406 C 468.3125 720.066406 443.78125 709.902344 425.328125 691.449219 C 387.238281 653.359375 387.238281 591.382812 425.328125 553.289062 C 463.421875 515.199219 525.398438 515.195312 563.492188 553.289062 C 601.582031 591.378906 601.582031 653.359375 563.492188 691.449219 C 545.039062 709.902344 520.503906 720.066406 494.410156 720.066406 Z M 438.285156 566.246094 C 407.339844 597.195312 407.339844 647.546875 438.285156 678.492188 C 453.277344 693.484375 473.210938 701.742188 494.410156 701.742188 C 515.609375 701.742188 535.542969 693.484375 550.53125 678.492188 C 581.480469 647.546875 581.480469 597.195312 550.53125 566.246094 C 519.585938 535.304688 469.234375 535.300781 438.285156 566.246094 Z M 438.285156 566.246094 " fill-opacity="1" fill-rule="nonzero"/><path fill="#000000" d="M 730.984375 87.550781 C 729.710938 87.550781 728.414062 87.28125 727.179688 86.71875 C 722.578125 84.613281 720.554688 79.175781 722.65625 74.574219 C 723.082031 73.640625 733.480469 51.820312 766.1875 58.25 C 771.152344 59.226562 774.386719 64.042969 773.410156 69.007812 C 772.433594 73.972656 767.605469 77.210938 762.652344 76.230469 C 744.277344 72.625 739.367188 82.097656 739.324219 82.191406 C 737.78125 85.5625 734.460938 87.550781 730.984375 87.550781 Z M 730.984375 87.550781 " fill-opacity="1" fill-rule="nonzero"/><path fill="#000000" d="M 684.191406 82.410156 C 683.664062 81.410156 678.527344 72.746094 660.757812 76.230469 C 655.796875 77.210938 650.976562 73.972656 650 69.007812 C 649.027344 64.042969 652.261719 59.226562 657.226562 58.25 C 689.9375 51.828125 700.328125 73.640625 700.753906 74.574219 L 684.085938 82.191406 Z M 684.191406 82.410156 " fill-opacity="1" fill-rule="nonzero"/><path fill="#000000" d="M 736.75 138.453125 C 735.199219 138.453125 733.621094 138.058594 732.179688 137.222656 C 718.980469 129.601562 704.4375 129.601562 691.234375 137.222656 C 686.851562 139.753906 681.25 138.25 678.71875 133.871094 C 676.1875 129.488281 677.6875 123.882812 682.070312 121.351562 C 700.902344 110.480469 722.503906 110.480469 741.34375 121.351562 C 745.726562 123.882812 747.226562 129.488281 744.695312 133.871094 C 743 136.808594 739.917969 138.453125 736.75 138.453125 Z M 736.75 138.453125 " fill-opacity="1" fill-rule="nonzero"/><path fill="#000000" d="M 513.6875 177.558594 C 512.414062 177.558594 511.117188 177.289062 509.882812 176.726562 C 505.28125 174.621094 503.253906 169.183594 505.359375 164.582031 C 505.785156 163.648438 516.171875 141.824219 548.886719 148.253906 C 553.855469 149.230469 557.089844 154.046875 556.113281 159.011719 C 555.140625 163.980469 550.320312 167.214844 545.355469 166.238281 C 526.957031 162.625 522.070312 172.105469 522.027344 172.199219 C 520.488281 175.570312 517.164062 177.558594 513.6875 177.558594 Z M 513.6875 177.558594 " fill-opacity="1" fill-rule="nonzero"/><path fill="#000000" d="M 466.894531 172.417969 C 466.367188 171.417969 461.214844 162.75 443.460938 166.242188 C 438.488281 167.21875 433.675781 163.980469 432.703125 159.015625 C 431.726562 154.050781 434.960938 149.234375 439.925781 148.257812 C 472.644531 141.835938 483.03125 163.652344 483.457031 164.582031 L 466.789062 172.203125 Z M 466.894531 172.417969 " fill-opacity="1" fill-rule="nonzero"/><path fill="#000000" d="M 494.410156 228.421875 C 484.300781 228.421875 474.191406 225.703125 464.773438 220.265625 C 460.390625 217.738281 458.890625 212.132812 461.421875 207.75 C 463.949219 203.367188 469.550781 201.867188 473.9375 204.398438 C 487.140625 212.019531 501.679688 212.019531 514.882812 204.398438 C 519.269531 201.871094 524.867188 203.367188 527.398438 207.75 C 529.929688 212.132812 528.425781 217.738281 524.042969 220.265625 C 514.628906 225.703125 504.515625 228.421875 494.410156 228.421875 Z M 494.410156 228.421875 " fill-opacity="1" fill-rule="nonzero"/><path fill="#000000" d="M 909.304688 169.910156 L 875.402344 169.910156 C 870.339844 169.910156 866.238281 165.804688 866.238281 160.746094 C 866.238281 155.6875 870.339844 151.582031 875.402344 151.582031 L 909.304688 151.582031 C 914.363281 151.582031 918.464844 155.6875 918.464844 160.746094 C 918.464844 165.804688 914.363281 169.910156 909.304688 169.910156 Z M 909.304688 169.910156 " fill-opacity="1" fill-rule="nonzero"/><path fill="#000000" d="M 982.605469 169.910156 L 948.703125 169.910156 C 943.640625 169.910156 939.539062 165.804688 939.539062 160.746094 C 939.539062 155.6875 943.640625 151.582031 948.703125 151.582031 L 982.605469 151.582031 C 987.667969 151.582031 991.769531 155.6875 991.769531 160.746094 C 991.769531 165.804688 987.667969 169.910156 982.605469 169.910156 Z M 982.605469 169.910156 " fill-opacity="1" fill-rule="nonzero"/><path fill="#000000" d="M 956.035156 223.96875 L 901.972656 223.96875 C 896.910156 223.96875 892.808594 219.867188 892.808594 214.808594 C 892.808594 209.746094 896.910156 205.644531 901.972656 205.644531 L 956.035156 205.644531 C 961.09375 205.644531 965.195312 209.746094 965.195312 214.808594 C 965.195312 219.867188 961.09375 223.96875 956.035156 223.96875 Z M 956.035156 223.96875 " fill-opacity="1" fill-rule="nonzero"/><path fill="#000000" d="M 1046.042969 448.46875 L 991.980469 448.46875 C 986.917969 448.46875 982.816406 444.367188 982.816406 439.304688 C 982.816406 434.242188 986.917969 430.140625 991.980469 430.140625 L 1046.042969 430.140625 C 1051.101562 430.140625 1055.203125 434.242188 1055.203125 439.304688 C 1055.203125 444.367188 1051.101562 448.46875 1046.042969 448.46875 Z M 1046.042969 448.46875 " fill-opacity="1" fill-rule="nonzero"/><path fill="#000000" d="M 967.367188 413.90625 C 964.199219 413.90625 961.121094 412.265625 959.425781 409.328125 C 956.894531 404.941406 958.394531 399.339844 962.777344 396.808594 L 978.394531 387.792969 L 962.777344 378.777344 C 958.394531 376.246094 956.894531 370.644531 959.425781 366.257812 C 961.953125 361.878906 967.558594 360.375 971.941406 362.90625 L 1001.300781 379.855469 C 1004.136719 381.492188 1005.882812 384.519531 1005.882812 387.792969 C 1005.882812 391.066406 1004.136719 394.089844 1001.300781 395.726562 L 971.941406 412.679688 C 970.5 413.511719 968.921875 413.90625 967.367188 413.90625 Z M 967.367188 413.90625 " fill-opacity="1" fill-rule="nonzero"/><path fill="#000000" d="M 1070.652344 413.90625 C 1069.097656 413.90625 1067.523438 413.511719 1066.082031 412.679688 L 1036.722656 395.726562 C 1033.886719 394.089844 1032.140625 391.066406 1032.140625 387.792969 C 1032.140625 384.519531 1033.886719 381.492188 1036.722656 379.855469 L 1066.082031 362.90625 C 1070.460938 360.371094 1076.066406 361.878906 1078.597656 366.257812 C 1081.128906 370.640625 1079.628906 376.246094 1075.242188 378.777344 L 1059.628906 387.792969 L 1075.242188 396.808594 C 1079.628906 399.339844 1081.128906 404.941406 1078.597656 409.328125 C 1076.898438 412.265625 1073.820312 413.90625 1070.652344 413.90625 Z M 1070.652344 413.90625 " fill-opacity="1" fill-rule="nonzero"/><path fill="#000000" d="M 877.359375 629.988281 C 874.191406 629.988281 871.113281 628.347656 869.414062 625.40625 C 866.882812 621.023438 868.386719 615.421875 872.769531 612.890625 L 888.382812 603.875 L 872.769531 594.855469 C 868.386719 592.328125 866.882812 586.722656 869.414062 582.339844 C 871.941406 577.957031 877.546875 576.449219 881.933594 578.988281 L 911.292969 595.9375 C 914.125 597.578125 915.875 600.601562 915.875 603.875 C 915.875 607.144531 914.125 610.171875 911.292969 611.808594 L 881.933594 628.757812 C 880.488281 629.59375 878.914062 629.988281 877.359375 629.988281 Z M 877.359375 629.988281 " fill-opacity="1" fill-rule="nonzero"/><path fill="#000000" d="M 980.644531 629.988281 C 979.089844 629.988281 977.515625 629.59375 976.074219 628.757812 L 946.714844 611.808594 C 943.878906 610.171875 942.132812 607.144531 942.132812 603.875 C 942.132812 600.601562 943.878906 597.574219 946.714844 595.9375 L 976.074219 578.988281 C 980.457031 576.449219 986.058594 577.957031 988.589844 582.339844 C 991.121094 586.722656 989.621094 592.328125 985.238281 594.855469 L 969.621094 603.875 L 985.238281 612.890625 C 989.621094 615.421875 991.121094 621.023438 988.589844 625.40625 C 986.894531 628.34375 983.8125 629.988281 980.644531 629.988281 Z M 980.644531 629.988281 " fill-opacity="1" fill-rule="nonzero"/><path fill="#000000" d="M 952.269531 666.980469 C 949.925781 666.980469 947.582031 666.085938 945.792969 664.300781 L 940.636719 659.144531 L 935.480469 664.300781 C 931.90625 667.878906 926.105469 667.875 922.527344 664.300781 L 917.371094 659.144531 L 912.214844 664.300781 C 908.640625 667.878906 902.839844 667.878906 899.257812 664.300781 L 894.105469 659.148438 L 888.949219 664.300781 C 885.375 667.882812 879.566406 667.882812 875.992188 664.300781 C 872.414062 660.726562 872.414062 654.921875 875.992188 651.347656 L 887.625 639.714844 C 891.203125 636.132812 897.003906 636.136719 900.582031 639.710938 L 905.738281 644.867188 L 910.890625 639.710938 C 914.46875 636.132812 920.269531 636.132812 923.847656 639.710938 L 929.003906 644.863281 L 934.160156 639.710938 C 937.734375 636.128906 943.535156 636.132812 947.113281 639.707031 L 952.269531 644.863281 L 957.425781 639.707031 C 961 636.128906 966.804688 636.128906 970.382812 639.707031 L 982.015625 651.339844 C 985.59375 654.917969 985.59375 660.71875 982.015625 664.296875 C 978.4375 667.875 972.632812 667.875 969.058594 664.296875 L 963.902344 659.144531 L 958.75 664.296875 C 956.960938 666.085938 954.617188 666.980469 952.269531 666.980469 Z M 952.269531 666.980469 " fill-opacity="1" fill-rule="nonzero"/><path fill="#000000" d="M 513.6875 606.75 C 512.414062 606.75 511.117188 606.480469 509.882812 605.917969 C 505.28125 603.816406 503.253906 598.378906 505.359375 593.773438 C 505.785156 592.839844 516.164062 571.019531 548.886719 577.449219 C 553.855469 578.425781 557.089844 583.242188 556.113281 588.207031 C 555.140625 593.171875 550.324219 596.398438 545.355469 595.429688 C 526.96875 591.820312 522.070312 601.292969 522.027344 601.394531 C 520.488281 604.761719 517.164062 606.75 513.6875 606.75 Z M 513.6875 606.75 " fill-opacity="1" fill-rule="nonzero"/><path fill="#000000" d="M 466.894531 601.609375 C 466.367188 600.609375 461.226562 591.941406 443.457031 595.429688 C 438.496094 596.398438 433.675781 593.171875 432.699219 588.207031 C 431.726562 583.242188 434.960938 578.425781 439.925781 577.449219 C 472.632812 571.03125 483.03125 592.839844 483.457031 593.773438 L 466.789062 601.394531 Z M 466.894531 601.609375 " fill-opacity="1" fill-rule="nonzero"/><path fill="#000000" d="M 494.410156 678.921875 C 479.957031 678.921875 466.789062 666.691406 455.273438 642.574219 C 453.917969 639.734375 454.113281 636.398438 455.792969 633.738281 C 457.472656 631.078125 460.398438 629.464844 463.542969 629.464844 L 525.277344 629.464844 C 528.421875 629.464844 531.347656 631.078125 533.023438 633.738281 C 534.703125 636.398438 534.898438 639.734375 533.542969 642.574219 C 522.03125 666.691406 508.863281 678.921875 494.410156 678.921875 Z M 479.132812 647.789062 C 484.597656 655.984375 489.992188 660.597656 494.410156 660.597656 C 498.828125 660.597656 504.222656 655.984375 509.683594 647.789062 Z M 479.132812 647.789062 " fill-opacity="1" fill-rule="nonzero"/><path fill="#000000" d="M 711.707031 767.019531 C 709.089844 767.019531 706.601562 765.90625 704.859375 763.949219 C 694.769531 752.613281 684.628906 746.046875 675.679688 740.253906 C 661.023438 730.769531 647.183594 721.8125 647.183594 697.992188 C 647.183594 675.792969 663.710938 657.734375 684.027344 657.734375 C 697.203125 657.734375 705.613281 663.480469 711.707031 671.570312 C 717.800781 663.480469 726.207031 657.734375 739.386719 657.734375 C 759.699219 657.734375 776.226562 675.792969 776.226562 697.992188 C 776.226562 721.808594 762.386719 730.769531 747.730469 740.253906 C 738.78125 746.046875 728.640625 752.613281 718.550781 763.949219 C 716.8125 765.90625 714.324219 767.019531 711.707031 767.019531 Z M 684.027344 676.0625 C 673.816406 676.0625 665.511719 685.902344 665.511719 697.996094 C 665.511719 711.84375 671.816406 715.925781 685.636719 724.871094 C 693.234375 729.789062 702.324219 735.675781 711.707031 744.664062 C 721.089844 735.675781 730.179688 729.789062 737.773438 724.871094 C 751.59375 715.925781 757.898438 711.84375 757.898438 697.996094 C 757.898438 685.902344 749.59375 676.0625 739.382812 676.0625 C 731.695312 676.0625 726.84375 678.738281 720.074219 693.945312 C 718.601562 697.253906 715.324219 699.382812 711.703125 699.382812 C 708.085938 699.382812 704.804688 697.253906 703.332031 693.945312 C 696.566406 678.738281 691.714844 676.0625 684.027344 676.0625 Z M 684.027344 676.0625 " fill-opacity="1" fill-rule="nonzero"/><path fill="#000000" d="M 726.242188 392.15625 C 713.105469 392.15625 702.417969 381.46875 702.417969 368.332031 L 702.417969 320.496094 C 702.417969 307.359375 713.105469 296.671875 726.242188 296.671875 C 739.378906 296.671875 750.066406 307.359375 750.066406 320.496094 L 750.066406 368.332031 C 750.066406 381.472656 739.378906 392.15625 726.242188 392.15625 Z M 726.242188 315 C 723.261719 315 720.742188 317.515625 720.742188 320.496094 L 720.742188 368.335938 C 720.742188 371.316406 723.261719 373.832031 726.242188 373.832031 C 729.222656 373.832031 731.738281 371.316406 731.738281 368.335938 L 731.738281 320.496094 C 731.738281 317.515625 729.222656 315 726.242188 315 Z M 726.242188 315 " fill-opacity="1" fill-rule="nonzero"/><path fill="#000000" d="M 726.242188 446.90625 C 713.042969 446.90625 702.300781 436.167969 702.300781 422.964844 C 702.300781 409.765625 713.042969 399.027344 726.242188 399.027344 C 739.441406 399.027344 750.179688 409.765625 750.179688 422.964844 C 750.179688 436.167969 739.445312 446.90625 726.242188 446.90625 Z M 726.242188 417.355469 C 723.148438 417.355469 720.628906 419.875 720.628906 422.96875 C 720.628906 426.0625 723.144531 428.582031 726.242188 428.582031 C 729.335938 428.582031 731.855469 426.0625 731.855469 422.96875 C 731.855469 419.875 729.335938 417.355469 726.242188 417.355469 Z M 726.242188 417.355469 " fill-opacity="1" fill-rule="nonzero"/></svg>