<svg xmlns="http://www.w3.org/2000/svg" xmlns:xlink="http://www.w3.org/1999/xlink" width="1920" zoomAndPan="magnify" viewBox="0 0 1440 809.999993" height="1080" preserveAspectRatio="xMidYMid meet" version="1.0"><defs><clipPath id="3f3961d203"><path d="M 289.316406 8.492188 L 1146 8.492188 L 1146 796.742188 L 289.316406 796.742188 Z M 289.316406 8.492188 " clip-rule="nonzero"/></clipPath></defs><g clip-path="url(#3f3961d203)"><path fill="#000000" d="M 1082.652344 232.6875 C 1051.5625 215.765625 1018.539062 209.328125 996.453125 215.886719 C 986.429688 218.859375 978.953125 224.464844 974.824219 232.125 L 780.222656 638.578125 C 779.8125 639.429688 779.59375 640.347656 779.558594 641.28125 L 776.246094 741 C 708.597656 691.597656 670.542969 638.308594 663.152344 582.484375 C 652.296875 500.449219 706.269531 427.335938 763.402344 349.902344 C 826.039062 265.046875 890.800781 177.304688 868.953125 72.914062 C 864.550781 51.867188 856.890625 31.363281 846.1875 12.011719 C 845 9.839844 842.722656 8.496094 840.242188 8.496094 L 296.113281 8.496094 C 292.359375 8.496094 289.316406 11.539062 289.316406 15.292969 L 289.316406 236.628906 C 289.316406 239.378906 290.984375 241.84375 293.515625 242.894531 C 296.0625 243.949219 298.984375 243.371094 300.921875 241.417969 L 345.398438 196.792969 L 345.550781 196.636719 C 357.695312 184.457031 373.835938 177.917969 391.027344 178.222656 C 408.203125 178.527344 424.105469 185.664062 435.8125 198.285156 L 464.113281 228.8125 C 458.132812 227.402344 452.527344 224.566406 447.855469 220.40625 C 445.9375 218.707031 443.21875 218.230469 440.824219 219.179688 C 438.445312 220.132812 436.796875 222.359375 436.574219 224.921875 C 436.4375 226.46875 436.386719 227.878906 436.386719 229.238281 C 436.386719 255.09375 455.636719 276.5 480.507812 279.828125 L 480.507812 318.355469 L 296.113281 318.355469 C 292.359375 318.355469 289.316406 321.398438 289.316406 325.152344 L 289.316406 391.457031 C 289.316406 391.929688 289.367188 392.40625 289.46875 392.882812 C 293.597656 412.046875 302.671875 447.210938 320.320312 489.152344 C 353.738281 567.789062 418.058594 671.484375 535.464844 736.769531 C 623.601562 785.761719 711.042969 796.789062 771.828125 796.789062 C 775.140625 796.789062 778.402344 796.753906 781.5625 796.6875 C 781.683594 796.6875 781.800781 796.652344 781.917969 796.652344 C 783.09375 796.644531 784.234375 796.242188 785.335938 795.445312 C 805.550781 781.261719 825.785156 767.109375 846 752.941406 C 866.234375 738.773438 886.46875 724.605469 906.683594 710.421875 C 907.449219 709.878906 908.113281 709.179688 908.585938 708.382812 L 1141.910156 322.996094 C 1155.5 297.835938 1129.472656 258.167969 1082.652344 232.6875 Z M 444.304688 113.617188 C 439.089844 121.703125 430.273438 126.546875 420.742188 126.546875 L 302.910156 126.546875 L 302.910156 48.25 C 317.6875 38.054688 336.613281 36.152344 351.988281 43.542969 C 371.066406 52.699219 376.808594 72.167969 377.761719 75.972656 C 378.320312 78.199219 379.96875 80 382.160156 80.746094 C 384.335938 81.492188 386.746094 81.085938 388.546875 79.660156 C 398.214844 72.066406 410.464844 68.90625 422.136719 70.960938 C 431.988281 72.710938 440.226562 77.925781 444.746094 85.25 C 445.339844 86.214844 445.886719 87.234375 446.34375 88.273438 C 450.097656 96.5625 449.351562 105.785156 444.304688 113.617188 Z M 649.679688 584.269531 C 650.039062 586.9375 650.480469 589.585938 650.953125 592.238281 L 635.496094 576.726562 C 634.222656 575.453125 632.4375 574.789062 630.636719 574.789062 C 628.820312 574.789062 627.035156 575.554688 625.761719 576.828125 L 597.59375 605.097656 L 571.292969 578.714844 L 571.292969 429.796875 C 578.292969 448.230469 582.457031 467.9375 583.457031 487.792969 C 583.628906 491.429688 586.636719 494.25 590.238281 494.25 C 590.355469 494.25 590.457031 494.25 590.578125 494.25 C 594.332031 494.0625 597.21875 490.871094 597.03125 487.113281 C 595.554688 457.777344 587.671875 428.746094 574.199219 403.144531 C 551.691406 360.386719 518.902344 335.15625 494.097656 321.144531 L 494.097656 279.828125 C 498.90625 279.183594 503.527344 277.859375 507.824219 275.953125 L 676.25 457.625 C 655.761719 498.140625 643.835938 540.101562 649.679688 584.269531 Z M 752.480469 341.835938 C 727.625 375.503906 702.394531 409.683594 682.996094 444.882812 L 593.738281 348.628906 L 693.1875 241.351562 C 704.894531 228.726562 720.8125 221.609375 737.988281 221.289062 C 755.164062 220.949219 771.300781 227.523438 783.464844 239.71875 L 807.335938 263.671875 C 790.566406 290.207031 771.421875 316.164062 752.480469 341.835938 Z M 714.660156 148.714844 C 714.765625 147.628906 717.363281 122.011719 740.46875 109.828125 C 762.332031 98.3125 783.3125 108.625 785.625 109.847656 C 787.457031 110.796875 789.632812 110.867188 791.535156 110.035156 C 793.421875 109.203125 794.832031 107.535156 795.359375 105.53125 C 796.328125 101.8125 802.101562 82.734375 821.265625 73 C 833.394531 66.832031 845.289062 67.105469 854.105469 68.90625 C 854.664062 71.164062 855.175781 73.425781 855.652344 75.699219 C 868.882812 138.914062 847.664062 196.6875 814.675781 251.78125 L 793.082031 230.121094 C 778.300781 215.289062 758.644531 207.238281 737.734375 207.699219 C 720.488281 208.019531 704.316406 213.984375 691.183594 224.667969 C 662.199219 223.632812 640.117188 213.183594 633.253906 197.0625 C 633.03125 196.554688 627.953125 184.371094 633.183594 173.074219 C 641.746094 154.492188 673.175781 146.589844 706.269531 154.695312 C 708.207031 155.152344 710.226562 154.78125 711.84375 153.625 C 713.4375 152.46875 714.476562 150.6875 714.660156 148.714844 Z M 641.710938 81.101562 C 670.457031 81.101562 696.363281 97.648438 708.632812 123.503906 C 705.367188 129.6875 703.484375 135.550781 702.429688 139.964844 C 665.226562 133.050781 631.605469 144.078125 620.832031 167.367188 C 613.410156 183.472656 619.457031 199.375 620.75 202.398438 C 625.640625 213.882812 635.816406 223.15625 649.644531 229.40625 C 647.03125 229.679688 644.378906 229.832031 641.710938 229.832031 C 600.855469 229.832031 567.625 196.46875 567.625 155.460938 C 567.625 114.46875 600.855469 81.101562 641.710938 81.101562 Z M 451.167969 238.683594 C 457.828125 241.773438 465.132812 243.421875 472.589844 243.421875 C 475.394531 243.421875 478.144531 243.167969 480.832031 242.710938 C 498.125 239.5 513.5 227.25 519.921875 211.078125 C 522.960938 216.582031 524.609375 222.816406 524.609375 229.238281 C 524.609375 249.914062 507.875 266.714844 487.304688 266.714844 C 469.957031 266.714844 455.347656 254.789062 451.167969 238.683594 Z M 337.3125 494.25 L 384.351562 494.25 C 387.96875 494.25 390.960938 491.414062 391.128906 487.792969 C 392.507812 460.410156 399.863281 433.332031 412.417969 409.464844 C 433.433594 369.542969 464.113281 345.980469 487.304688 332.914062 C 508.878906 345.078125 536.976562 366.382812 557.703125 401.511719 L 557.703125 578.714844 L 531.40625 605.097656 L 530.863281 604.535156 L 530.863281 502.21875 C 530.863281 498.464844 527.820312 495.421875 524.066406 495.421875 L 450.523438 495.421875 C 446.785156 495.421875 443.726562 498.464844 443.726562 502.21875 L 443.726562 583.523438 L 436.964844 576.726562 C 435.691406 575.453125 433.957031 574.722656 432.140625 574.722656 C 430.339844 574.722656 428.609375 575.453125 427.332031 576.726562 L 401.390625 602.753906 C 373.105469 565.921875 352.378906 528.175781 337.3125 494.25 Z M 774.851562 783.179688 C 715.628906 783.554688 629.175781 773.3125 542.074219 724.878906 C 486.46875 693.976562 443.320312 654.597656 409.886719 613.488281 L 432.140625 591.148438 L 460.425781 619.519531 C 461.703125 620.792969 463.433594 621.523438 465.234375 621.523438 C 467.035156 621.523438 468.769531 620.792969 470.042969 619.519531 L 498.328125 591.148438 L 526.597656 619.519531 C 527.871094 620.792969 529.605469 621.523438 531.40625 621.523438 C 533.222656 621.523438 534.957031 620.792969 536.230469 619.519531 L 564.5 591.148438 L 592.785156 619.519531 C 594.058594 620.792969 595.792969 621.523438 597.59375 621.523438 C 599.394531 621.523438 601.125 620.792969 602.402344 619.519531 L 630.6875 591.148438 L 657.800781 618.363281 C 674.804688 667.527344 714.339844 714.140625 775.703125 757.324219 Z M 838.898438 741.324219 C 829.726562 739.625 820.925781 736.515625 812.71875 732.046875 C 804.515625 727.578125 797.125 721.886719 790.703125 715.109375 L 792.554688 659.609375 C 804.601562 672.589844 818.769531 683.664062 834.261719 692.109375 C 849.789062 700.570312 866.828125 706.464844 884.292969 709.519531 C 869.171875 720.121094 854.035156 730.722656 838.898438 741.324219 Z M 834.855469 676.75 C 819.328125 667.339844 805.449219 655.023438 794.269531 640.703125 L 928.363281 360.621094 C 937.398438 378.101562 955.664062 396.007812 979.105469 409.886719 Z M 1069.65625 416.257812 C 1051.664062 423.019531 1020.730469 417.210938 991.710938 401.410156 C 991.660156 401.394531 991.542969 401.324219 991.507812 401.292969 C 962.390625 385.460938 940.609375 362.628906 936.414062 343.804688 L 948.171875 319.222656 C 957.363281 338.808594 978.460938 359.316406 1006.117188 374.367188 C 1029.394531 387.039062 1053.398438 393.679688 1073.15625 393.679688 C 1076.859375 393.679688 1080.394531 393.425781 1083.773438 392.949219 Z M 1129.949219 316.539062 C 1128.742188 318.765625 1126.992188 320.699219 1124.734375 322.316406 C 1122.472656 323.929688 1119.6875 325.238281 1116.410156 326.207031 C 1097.941406 331.691406 1068.179688 325.527344 1040.570312 310.507812 C 997.742188 287.199219 978.171875 254.5 986.769531 238.582031 C 989.199219 234.113281 993.75 230.867188 1000.308594 228.914062 C 1004.777344 227.589844 1009.925781 226.945312 1015.53125 226.945312 C 1033.078125 226.945312 1055.234375 233.230469 1076.144531 244.628906 C 1118.992188 267.9375 1138.546875 300.621094 1129.949219 316.539062 Z M 1129.949219 316.539062 " fill-opacity="1" fill-rule="nonzero"/></g><path fill="#000000" d="M 487.304688 472.113281 C 507.265625 472.113281 523.507812 455.839844 523.507812 435.8125 C 523.507812 415.800781 507.265625 399.507812 487.304688 399.507812 C 467.324219 399.507812 451.082031 415.800781 451.082031 435.8125 C 451.082031 455.839844 467.324219 472.113281 487.304688 472.113281 Z M 487.304688 472.113281 " fill-opacity="1" fill-rule="nonzero"/></svg>