<svg xmlns="http://www.w3.org/2000/svg" xmlns:xlink="http://www.w3.org/1999/xlink" width="1920" zoomAndPan="magnify" viewBox="0 0 1440 809.999993" height="1080" preserveAspectRatio="xMidYMid meet" version="1.0"><defs><clipPath id="57b3083317"><path d="M 318.457031 6.46875 L 1116 6.46875 L 1116 803.71875 L 318.457031 803.71875 Z M 318.457031 6.46875 " clip-rule="nonzero"/></clipPath></defs><path fill="#000000" d="M 487.386719 721.386719 C 476.863281 721.386719 466.34375 717.382812 458.332031 709.375 L 413.441406 664.480469 C 397.421875 648.460938 397.421875 622.394531 413.441406 606.375 L 424.664062 595.152344 C 428.3125 591.5 434.230469 591.5 437.875 595.152344 C 441.523438 598.800781 441.523438 604.714844 437.875 608.363281 L 426.652344 619.585938 C 417.921875 628.320312 417.921875 642.535156 426.652344 651.269531 L 471.542969 696.164062 C 480.277344 704.894531 494.492188 704.894531 503.226562 696.160156 L 514.449219 684.9375 C 518.097656 681.289062 524.011719 681.289062 527.660156 684.9375 C 531.308594 688.585938 531.308594 694.503906 527.660156 698.148438 L 516.4375 709.371094 C 508.425781 717.382812 497.90625 721.386719 487.386719 721.386719 Z M 487.386719 721.386719 " fill-opacity="1" fill-rule="nonzero"/><path fill="#000000" d="M 565.945312 643.09375 C 555.132812 643.09375 544.964844 638.882812 537.320312 631.234375 L 491.574219 585.488281 C 483.929688 577.84375 479.71875 567.679688 479.71875 556.863281 C 479.71875 546.050781 483.929688 535.882812 491.574219 528.238281 L 492.429688 527.386719 C 500.074219 519.738281 510.238281 515.527344 521.054688 515.527344 C 531.867188 515.527344 542.035156 519.738281 549.679688 527.386719 L 595.425781 573.132812 C 603.070312 580.777344 607.28125 590.941406 607.28125 601.757812 C 607.28125 612.570312 603.070312 622.738281 595.425781 630.382812 L 594.570312 631.234375 C 586.925781 638.882812 576.761719 643.09375 565.945312 643.09375 Z M 521.054688 534.210938 C 515.230469 534.210938 509.757812 536.480469 505.640625 540.597656 L 504.785156 541.449219 C 500.671875 545.570312 498.402344 551.042969 498.402344 556.863281 C 498.402344 562.683594 500.667969 568.160156 504.785156 572.277344 L 550.53125 618.023438 C 554.648438 622.140625 560.121094 624.410156 565.945312 624.410156 C 571.765625 624.410156 577.242188 622.140625 581.359375 618.023438 L 582.210938 617.171875 C 582.210938 617.167969 582.210938 617.167969 582.210938 617.167969 C 586.328125 613.050781 588.59375 607.582031 588.59375 601.757812 C 588.59375 595.9375 586.328125 590.460938 582.210938 586.347656 L 536.46875 540.597656 C 532.351562 536.480469 526.878906 534.210938 521.054688 534.210938 Z M 521.054688 534.210938 " fill-opacity="1" fill-rule="nonzero"/><path fill="#000000" d="M 835.296875 386.632812 C 832.820312 386.632812 830.445312 385.648438 828.691406 383.898438 L 738.910156 294.109375 C 735.257812 290.460938 735.257812 284.546875 738.90625 280.898438 L 772.578125 247.226562 C 776.226562 243.578125 782.144531 243.578125 785.789062 247.226562 C 789.4375 250.875 789.4375 256.789062 785.789062 260.4375 L 758.726562 287.503906 L 835.296875 364.078125 L 862.359375 337.011719 C 866.007812 333.367188 871.925781 333.367188 875.570312 337.011719 C 879.222656 340.660156 879.222656 346.578125 875.570312 350.226562 L 841.902344 383.894531 C 840.152344 385.648438 837.773438 386.632812 835.296875 386.632812 Z M 835.296875 386.632812 " fill-opacity="1" fill-rule="nonzero"/><path fill="#000000" d="M 655.730469 566.207031 C 653.335938 566.207031 650.945312 565.296875 649.121094 563.46875 L 559.335938 473.683594 C 556.273438 470.621094 555.71875 465.851562 557.996094 462.167969 C 560.273438 458.480469 564.785156 456.847656 568.898438 458.214844 L 666.027344 490.59375 L 604.226562 428.789062 C 600.578125 425.140625 600.578125 419.226562 604.226562 415.582031 C 607.875 411.929688 613.792969 411.929688 617.441406 415.582031 L 707.222656 505.367188 C 710.289062 508.429688 710.84375 513.199219 708.566406 516.882812 C 706.289062 520.570312 701.773438 522.207031 697.664062 520.835938 L 600.53125 488.457031 L 662.332031 550.257812 C 665.980469 553.90625 665.980469 559.824219 662.332031 563.46875 C 660.511719 565.296875 658.121094 566.207031 655.730469 566.207031 Z M 655.730469 566.207031 " fill-opacity="1" fill-rule="nonzero"/><path fill="#000000" d="M 655.730469 386.632812 C 653.335938 386.632812 650.945312 385.71875 649.121094 383.898438 C 645.472656 380.25 645.472656 374.332031 649.121094 370.683594 L 694.015625 325.792969 C 697.664062 322.144531 703.578125 322.144531 707.226562 325.792969 C 710.875 329.441406 710.875 335.355469 707.226562 339.003906 L 662.332031 383.898438 C 660.511719 385.71875 658.121094 386.632812 655.730469 386.632812 Z M 655.730469 386.632812 " fill-opacity="1" fill-rule="nonzero"/><path fill="#000000" d="M 767.960938 453.972656 C 765.570312 453.972656 763.179688 453.058594 761.355469 451.234375 L 671.570312 361.449219 C 667.921875 357.800781 667.921875 351.886719 671.570312 348.238281 C 675.21875 344.589844 681.136719 344.589844 684.78125 348.238281 L 774.566406 438.023438 C 778.214844 441.671875 778.214844 447.589844 774.566406 451.234375 C 772.742188 453.058594 770.351562 453.972656 767.960938 453.972656 Z M 767.960938 453.972656 " fill-opacity="1" fill-rule="nonzero"/><path fill="#000000" d="M 902.636719 139.71875 C 900.246094 139.71875 897.851562 138.808594 896.03125 136.984375 C 892.378906 133.335938 892.378906 127.417969 896.03125 123.769531 L 940.921875 78.878906 C 944.570312 75.230469 950.488281 75.230469 954.132812 78.878906 C 957.78125 82.527344 957.78125 88.441406 954.132812 92.089844 L 909.238281 136.984375 C 907.417969 138.808594 905.023438 139.71875 902.636719 139.71875 Z M 902.636719 139.71875 " fill-opacity="1" fill-rule="nonzero"/><path fill="#000000" d="M 1014.867188 207.058594 C 1012.476562 207.058594 1010.085938 206.144531 1008.261719 204.324219 L 918.476562 114.535156 C 914.828125 110.886719 914.828125 104.972656 918.476562 101.324219 C 922.125 97.675781 928.042969 97.675781 931.6875 101.324219 L 1021.472656 191.109375 C 1025.121094 194.757812 1025.121094 200.675781 1021.472656 204.324219 C 1019.648438 206.144531 1017.257812 207.058594 1014.867188 207.058594 Z M 1014.867188 207.058594 " fill-opacity="1" fill-rule="nonzero"/><path fill="#000000" d="M 790.40625 341.738281 C 788.011719 341.738281 785.625 340.824219 783.796875 339.003906 C 780.148438 335.355469 780.148438 329.4375 783.800781 325.789062 L 817.46875 292.121094 C 821.117188 288.472656 827.035156 288.472656 830.683594 292.121094 C 834.332031 295.769531 834.332031 301.683594 830.679688 305.332031 L 797.011719 339.003906 C 795.1875 340.828125 792.796875 341.738281 790.40625 341.738281 Z M 790.40625 341.738281 " fill-opacity="1" fill-rule="nonzero"/><path fill="#000000" d="M 958.75 263.175781 C 956.359375 263.175781 953.96875 262.265625 952.144531 260.4375 L 942.921875 251.214844 L 833.464844 229.324219 C 831.65625 228.960938 829.992188 228.070312 828.691406 226.765625 L 817.46875 215.542969 C 813.820312 211.894531 813.820312 205.976562 817.46875 202.332031 C 821.117188 198.679688 827.035156 198.683594 830.683594 202.332031 L 839.902344 211.554688 L 949.359375 233.449219 C 951.167969 233.808594 952.832031 234.699219 954.132812 236.003906 L 965.355469 247.226562 C 969.003906 250.875 969.003906 256.789062 965.355469 260.4375 C 963.53125 262.261719 961.140625 263.175781 958.75 263.175781 Z M 958.75 263.175781 " fill-opacity="1" fill-rule="nonzero"/><path fill="#000000" d="M 913.859375 308.066406 C 911.46875 308.066406 909.078125 307.15625 907.253906 305.332031 L 896.03125 294.109375 C 894.726562 292.804688 893.835938 291.144531 893.472656 289.335938 L 871.582031 179.875 L 862.359375 170.652344 C 858.710938 167.003906 858.710938 161.085938 862.359375 157.4375 C 866.007812 153.789062 871.925781 153.789062 875.570312 157.4375 L 886.792969 168.664062 C 888.097656 169.964844 888.988281 171.628906 889.351562 173.4375 L 911.242188 282.898438 L 920.464844 292.121094 C 924.113281 295.769531 924.113281 301.683594 920.464844 305.332031 C 918.640625 307.15625 916.25 308.066406 913.859375 308.066406 Z M 913.859375 308.066406 " fill-opacity="1" fill-rule="nonzero"/><g clip-path="url(#57b3083317)"><path fill="#000000" d="M 486.980469 803.71875 C 471.175781 803.71875 456.316406 797.5625 445.140625 786.386719 L 335.917969 677.164062 C 324.742188 665.988281 318.589844 651.128906 318.589844 635.320312 C 318.589844 619.519531 324.742188 604.660156 335.917969 593.484375 L 905.585938 23.796875 C 916.757812 12.625 931.617188 6.46875 947.421875 6.46875 C 963.226562 6.46875 978.085938 12.625 989.261719 23.796875 L 1098.484375 133.023438 C 1121.550781 156.09375 1121.550781 193.632812 1098.484375 216.703125 L 528.816406 786.386719 C 517.640625 797.5625 502.78125 803.71875 486.980469 803.71875 Z M 947.421875 25.152344 C 936.609375 25.152344 926.441406 29.367188 918.792969 37.011719 L 349.128906 606.695312 C 341.484375 614.34375 337.273438 624.507812 337.273438 635.320312 C 337.273438 646.136719 341.484375 656.304688 349.128906 663.949219 L 458.351562 773.175781 C 466 780.820312 476.164062 785.03125 486.980469 785.03125 C 497.792969 785.03125 507.960938 780.820312 515.605469 773.175781 L 1085.273438 203.488281 L 1085.269531 203.488281 C 1101.058594 187.707031 1101.058594 162.023438 1085.269531 146.234375 L 976.050781 37.011719 C 968.402344 29.367188 958.238281 25.152344 947.421875 25.152344 Z M 1091.878906 210.09375 L 1091.894531 210.09375 Z M 1091.878906 210.09375 " fill-opacity="1" fill-rule="nonzero"/></g><path fill="#000000" d="M 430.957031 521.003906 C 428.566406 521.003906 426.175781 520.089844 424.351562 518.265625 L 362.679688 456.59375 C 359.03125 452.945312 359.03125 447.03125 362.679688 443.382812 L 755.488281 50.5625 C 757.238281 48.808594 759.617188 47.824219 762.09375 47.824219 C 764.570312 47.824219 766.945312 48.808594 768.699219 50.5625 L 830.367188 112.234375 C 834.015625 115.882812 834.015625 121.796875 830.367188 125.445312 C 826.722656 129.097656 820.804688 129.09375 817.15625 125.445312 L 762.09375 70.378906 L 382.5 449.988281 L 437.566406 505.054688 C 441.210938 508.699219 441.210938 514.617188 437.566406 518.261719 C 435.738281 520.089844 433.347656 521.003906 430.957031 521.003906 Z M 430.957031 521.003906 " fill-opacity="1" fill-rule="nonzero"/><path fill="#000000" d="M 358.066406 380.765625 C 355.671875 380.765625 353.28125 379.851562 351.457031 378.03125 C 347.808594 374.382812 347.808594 368.464844 351.457031 364.816406 L 676.925781 39.339844 C 680.574219 35.691406 686.492188 35.691406 690.136719 39.339844 C 693.785156 42.988281 693.785156 48.902344 690.136719 52.550781 L 364.671875 378.03125 C 362.847656 379.851562 360.457031 380.765625 358.066406 380.765625 Z M 358.066406 380.765625 " fill-opacity="1" fill-rule="nonzero"/><path fill="#000000" d="M 335.621094 313.425781 C 333.226562 313.425781 330.835938 312.511719 329.011719 310.6875 C 325.363281 307.039062 325.363281 301.125 329.011719 297.476562 L 609.585938 16.890625 C 613.234375 13.242188 619.152344 13.242188 622.800781 16.890625 C 626.449219 20.539062 626.449219 26.457031 622.800781 30.105469 L 342.222656 310.6875 C 340.402344 312.511719 338.007812 313.425781 335.621094 313.425781 Z M 335.621094 313.425781 " fill-opacity="1" fill-rule="nonzero"/><path fill="#000000" d="M 750.871094 773.582031 C 748.480469 773.582031 746.085938 772.671875 744.265625 770.84375 C 740.613281 767.195312 740.613281 761.28125 744.265625 757.632812 L 1069.730469 432.15625 C 1073.378906 428.507812 1079.296875 428.507812 1082.941406 432.15625 C 1086.589844 435.804688 1086.589844 441.722656 1082.941406 445.367188 L 757.472656 770.847656 C 755.652344 772.671875 753.257812 773.582031 750.871094 773.582031 Z M 750.871094 773.582031 " fill-opacity="1" fill-rule="nonzero"/><path fill="#000000" d="M 818.207031 796.03125 C 815.816406 796.03125 813.425781 795.117188 811.601562 793.292969 C 807.953125 789.644531 807.953125 783.730469 811.601562 780.082031 L 1092.175781 499.496094 C 1095.824219 495.847656 1101.742188 495.847656 1105.386719 499.496094 C 1109.035156 503.144531 1109.035156 509.0625 1105.386719 512.707031 L 824.8125 793.292969 C 822.988281 795.117188 820.597656 796.03125 818.207031 796.03125 Z M 818.207031 796.03125 " fill-opacity="1" fill-rule="nonzero"/><path fill="#000000" d="M 672.308594 762.359375 C 669.917969 762.359375 667.527344 761.445312 665.703125 759.621094 L 604.03125 697.949219 C 600.382812 694.300781 600.382812 688.386719 604.03125 684.738281 C 607.679688 681.089844 613.597656 681.089844 617.242188 684.738281 L 672.308594 739.804688 L 1051.902344 360.199219 L 996.839844 305.132812 C 993.1875 301.484375 993.1875 295.570312 996.839844 291.921875 C 1000.484375 288.273438 1006.402344 288.273438 1010.046875 291.921875 L 1071.71875 353.59375 C 1075.367188 357.242188 1075.367188 363.15625 1071.71875 366.804688 L 678.914062 759.621094 C 677.089844 761.449219 674.699219 762.359375 672.308594 762.359375 Z M 672.308594 762.359375 " fill-opacity="1" fill-rule="nonzero"/></svg>